<svg xmlns="http://www.w3.org/2000/svg" viewBox="0 0 780 420" width="780" height="420">
  <style>
    text { font-family: -apple-system, BlinkMacSystemFont, 'Segoe UI', sans-serif; }
    .title { font-size: 14px; font-weight: 700; fill: #1e1b4b; }
    .label { font-size: 11px; fill: #4b5563; }
    .label-sm { font-size: 10px; fill: #6b7280; }
    .label-white { font-size: 11px; fill: #ffffff; font-weight: 600; }
    .label-bold { font-size: 12px; fill: #1e1b4b; font-weight: 600; }
  </style>
  <defs>
    <marker id="arrow" markerWidth="8" markerHeight="6" refX="8" refY="3" orient="auto">
      <path d="M0,0 L8,3 L0,6" fill="#6366f1"/>
    </marker>
    <marker id="arrow-gray" markerWidth="8" markerHeight="6" refX="8" refY="3" orient="auto">
      <path d="M0,0 L8,3 L0,6" fill="#9ca3af"/>
    </marker>
  </defs>

  <!-- Background -->
  <rect width="780" height="420" rx="12" fill="#fafafe"/>

  <!-- Header -->
  <text x="390" y="30" text-anchor="middle" class="title" font-size="16">OpenCode CLI Enforcer — Architecture</text>

  <!-- OpenCode Agent box -->
  <rect x="30" y="55" width="160" height="50" rx="8" fill="#f0fdf4" stroke="#22c55e" stroke-width="1.5"/>
  <text x="110" y="75" text-anchor="middle" class="label-bold">OpenCode Agent</text>
  <text x="110" y="90" text-anchor="middle" class="label-sm">system prompt + hooks</text>

  <!-- Arrow down -->
  <line x1="110" y1="105" x2="110" y2="135" stroke="#6366f1" stroke-width="2" marker-end="url(#arrow)"/>

  <!-- Plugin box -->
  <rect x="30" y="140" width="160" height="50" rx="8" fill="#eef2ff" stroke="#6366f1" stroke-width="1.5"/>
  <text x="110" y="160" text-anchor="middle" class="label-bold">Plugin Entry</text>
  <text x="110" y="175" text-anchor="middle" class="label-sm">index.ts — 4 tools, 2 hooks</text>

  <!-- Arrow right to tools -->
  <line x1="190" y1="165" x2="240" y2="165" stroke="#6366f1" stroke-width="2" marker-end="url(#arrow)"/>

  <!-- Tools column -->
  <rect x="250" y="60" width="140" height="38" rx="6" fill="#6366f1"/>
  <text x="320" y="84" text-anchor="middle" class="label-white">cli_exec</text>

  <rect x="250" y="108" width="140" height="38" rx="6" fill="#7c3aed"/>
  <text x="320" y="132" text-anchor="middle" class="label-white">cli_status</text>

  <rect x="250" y="156" width="140" height="38" rx="6" fill="#8b5cf6"/>
  <text x="320" y="180" text-anchor="middle" class="label-white">cli_list</text>

  <rect x="250" y="204" width="140" height="38" rx="6" fill="#a78bfa"/>
  <text x="320" y="228" text-anchor="middle" class="label-white">cli_route</text>

  <!-- Arrow from cli_exec to resilience -->
  <line x1="390" y1="79" x2="440" y2="79" stroke="#6366f1" stroke-width="2" marker-end="url(#arrow)"/>

  <!-- Resilience Engine box -->
  <rect x="450" y="50" width="300" height="360" rx="10" fill="#fefce8" stroke="#eab308" stroke-width="1.5" stroke-dasharray="4"/>
  <text x="600" y="72" text-anchor="middle" class="title">Resilience Engine</text>

  <!-- Global Budget -->
  <rect x="470" y="82" width="260" height="32" rx="6" fill="#fef3c7" stroke="#f59e0b" stroke-width="1"/>
  <text x="600" y="103" text-anchor="middle" class="label-bold" fill="#92400e">Global Time Budget (shared)</text>

  <!-- Provider boxes -->
  <rect x="480" y="130" width="75" height="45" rx="6" fill="#dbeafe" stroke="#3b82f6" stroke-width="1.2"/>
  <text x="517" y="148" text-anchor="middle" class="label-sm" fill="#1e40af" font-weight="600">Claude</text>
  <text x="517" y="164" text-anchor="middle" class="label-sm">reasoning</text>

  <rect x="563" y="130" width="75" height="45" rx="6" fill="#dcfce7" stroke="#22c55e" stroke-width="1.2"/>
  <text x="600" y="148" text-anchor="middle" class="label-sm" fill="#166534" font-weight="600">Gemini</text>
  <text x="600" y="164" text-anchor="middle" class="label-sm">research</text>

  <rect x="646" y="130" width="75" height="45" rx="6" fill="#fce7f3" stroke="#ec4899" stroke-width="1.2"/>
  <text x="683" y="148" text-anchor="middle" class="label-sm" fill="#9d174d" font-weight="600">Codex</text>
  <text x="683" y="164" text-anchor="middle" class="label-sm">code-gen</text>

  <!-- Fallback arrows -->
  <line x1="555" y1="152" x2="563" y2="152" stroke="#9ca3af" stroke-width="1.5" marker-end="url(#arrow-gray)"/>
  <line x1="638" y1="152" x2="646" y2="152" stroke="#9ca3af" stroke-width="1.5" marker-end="url(#arrow-gray)"/>

  <!-- Arrow down from providers -->
  <line x1="600" y1="175" x2="600" y2="200" stroke="#6366f1" stroke-width="2" marker-end="url(#arrow)"/>

  <!-- Circuit Breaker -->
  <rect x="480" y="205" width="240" height="45" rx="6" fill="#fee2e2" stroke="#ef4444" stroke-width="1"/>
  <text x="600" y="223" text-anchor="middle" class="label-bold" fill="#991b1b">Circuit Breaker</text>
  <text x="600" y="240" text-anchor="middle" class="label-sm">3 failures OR 5 timeouts = open | 60s cooldown</text>

  <!-- Arrow down -->
  <line x1="600" y1="250" x2="600" y2="268" stroke="#6366f1" stroke-width="2" marker-end="url(#arrow)"/>

  <!-- Retry -->
  <rect x="480" y="273" width="240" height="45" rx="6" fill="#fef9c3" stroke="#eab308" stroke-width="1"/>
  <text x="600" y="291" text-anchor="middle" class="label-bold" fill="#854d0e">Retry + Backoff</text>
  <text x="600" y="308" text-anchor="middle" class="label-sm">max 2 retries | 1s-10s + jitter | abort-aware</text>

  <!-- Arrow down -->
  <line x1="600" y1="318" x2="600" y2="336" stroke="#6366f1" stroke-width="2" marker-end="url(#arrow)"/>

  <!-- Executor -->
  <rect x="480" y="341" width="240" height="45" rx="6" fill="#e0e7ff" stroke="#6366f1" stroke-width="1"/>
  <text x="600" y="359" text-anchor="middle" class="label-bold" fill="#3730a3">Executor (execa)</text>
  <text x="600" y="376" text-anchor="middle" class="label-sm">stdin >30KB | Windows .cmd | 10MB buffer</text>

  <!-- Side modules -->
  <rect x="30" y="240" width="130" height="32" rx="6" fill="#f3e8ff" stroke="#a855f7" stroke-width="1"/>
  <text x="95" y="261" text-anchor="middle" class="label-sm" fill="#7e22ce">error-classifier.ts</text>

  <rect x="30" y="282" width="130" height="32" rx="6" fill="#f3e8ff" stroke="#a855f7" stroke-width="1"/>
  <text x="95" y="303" text-anchor="middle" class="label-sm" fill="#7e22ce">detection.ts (cache)</text>

  <rect x="30" y="324" width="130" height="32" rx="6" fill="#f3e8ff" stroke="#a855f7" stroke-width="1"/>
  <text x="95" y="345" text-anchor="middle" class="label-sm" fill="#7e22ce">safe-env.ts</text>

  <rect x="30" y="366" width="130" height="32" rx="6" fill="#f3e8ff" stroke="#a855f7" stroke-width="1"/>
  <text x="95" y="387" text-anchor="middle" class="label-sm" fill="#7e22ce">redact.ts</text>

  <!-- Connecting lines from side modules -->
  <line x1="160" y1="256" x2="450" y2="256" stroke="#a855f7" stroke-width="1" stroke-dasharray="3" opacity="0.5"/>
  <line x1="160" y1="298" x2="450" y2="298" stroke="#a855f7" stroke-width="1" stroke-dasharray="3" opacity="0.5"/>
  <line x1="160" y1="340" x2="450" y2="363" stroke="#a855f7" stroke-width="1" stroke-dasharray="3" opacity="0.5"/>
  <line x1="160" y1="382" x2="450" y2="370" stroke="#a855f7" stroke-width="1" stroke-dasharray="3" opacity="0.5"/>
</svg>
